<svg 
viewBox="0 0 523 227" 
fill="none" 
xmlns="http://www.w3.org/2000/svg">
<path d="M37.86 14.81L21.73 58.63h32L37.86 14.81zM16.79 97.12H.93v-.26c5.46-5.46 7-9.49 10.4-18.6L40.07.77h3.12l29.13 78.8c3.9 10.4 5.59 13.39 10 17.29v.26H61.66v-.26c1.94-3 2.73-9.1-.52-17.81l-6.51-17.82H20.7L15.36 75.8c-4.29 11.44-1.3 17.68 1.43 21.06v.26zm80.15-82.05l.52 60.47c0 9.75 1.69 13.78 9.11 21.32v.26H87.32v-.26c5.85-7.54 7.15-11.57 7.15-21.32V16.37C92.65 9.87 89.66 5.97 84.2 2.2v-.26h15.73l60.6 78.8-.39-57.22c-.13-9.75-1.56-13.78-7.93-21.32v-.26h17.95v.26C164.3 9.74 163 13.77 163 23.52v73.6l-2.73.39-63.33-82.44zm91.85 0l.52 60.47c0 9.75 1.69 13.78 9.11 21.32v.26h-19.25v-.26c5.86-7.54 7.15-11.57 7.15-21.32V16.37c-1.82-6.5-4.81-10.4-10.27-14.17v-.26h15.74l60.59 78.8-.38-57.22c-.13-9.75-1.56-13.78-7.93-21.32v-.26H262v.26c-5.86 7.54-7.15 11.57-7.15 21.32v73.6l-2.74.39-63.32-82.44zm148 82.05H273v-.26c3.37-6.5 5.07-10.79 5.07-17.94V20.14c0-7.28-1.7-11.44-5.07-18v-.26h57.34l5.07 20.81-1 .39c-6.5-7.67-13.39-17.95-18.2-18.2L288.84 4v44h16.38c4.81 0 9-7.8 12.49-12.35h1v26.53h-1c-3.38-3.91-7.68-11.58-12.49-11.58h-16.38V95l28.35-.91c9.36-.39 17.16-10.14 24.31-20.67l1.05.39-5.76 23.31zm66.8-53.54c-.13-4.68-.52-6.18-2.73-8.12v-.14H408l.72 23.28 7-11.57c4-6.31 4.61-9.49 1.36-11.57v-.14h7.54v.14l-19.44 31.27h-.84l-.75-23.15zm38.31 3.71l2.47-9.37a4.267 4.267 0 00-4-2.08c-7.74 0-13.65 12.62-13.65 21.66 0 5.07 1.76 6 3.32 6 4.68 0 9-9.36 11.89-16.25l-.03.04zm-1.27 5.96c-3.25 7.54-7.74 14-13 14-3.51 0-5.85-3.12-5.85-8.78 0-11.51 8.91-24.12 20.09-24.12a13.22 13.22 0 015.52 1.11l2-1.11h.39l-6.24 23.92c-1.11 4.23-1.37 5.92 1.82 7.29v.06L437 66.86l3.63-13.61zm33-9.36c.71-3.19.13-5.85-2.41-5.85-3.51 0-7.86 5.46-13.13 17.62l-.4 1.88c-.77 3.58-1 6-.38 8.58v.13h-7.15v-.13c1.82-3 2.46-6.11 3.51-11.18l2-9.56c1-4.42.19-7.15-1.24-8.58v-.13l8.19-2.67-3.71 17c3.84-9.24 9.24-16.71 14.9-16.71 3.7 0 5.72 3.38 4.42 9.49L475.11 58c-1.18 5.27-1.3 7.23 2.27 7.74v.13l-8.78 1 5.03-22.98zM144 151.6l-1 .4c-7-17.17-16-22.24-25.74-22.24-12 0-17.56 7.29-17.56 16.13 0 13.13 11.83 17.81 24.19 23.53 13.13 6 26.66 12.49 26.66 30.17 0 19.12-15.61 26.65-33.42 26.65a73.721 73.721 0 01-25.75-4.93l-2.6-21.07 1-.39c7.8 16.52 16.9 23.8 30.43 23.8 13.78 0 20.55-8.19 20.55-19.25 0-14.17-10.8-19.77-22.63-25.1-13.27-6.11-26.79-12-26.79-28.6 0-16.26 12.74-23.54 29-23.54a60.212 60.212 0 0121.06 3.9l2.6 20.54zm62.32 72.69h-21.07V224c4.3-6.64 5.21-10.4 5.21-19.25v-73.31l-17.3.52c-4.81.13-12.48 13.27-18.07 21.85l-1-.39L159 129.1h73.47l5.07 24.32-1 .39c-5.72-8.58-13.39-21.72-18.21-21.85l-17.16-.52v73.34c0 9 .91 12.61 5.2 19.25l-.05.26zm55.57-92.46v44.47h15.47c15.61 0 20.43-11.57 20.43-24.7 0-11.84-4.69-19.89-20.55-19.89-2.47 0-7.94 0-15.35.12zM246 224c4.16-6.64 5.2-10.4 5.2-19.25v-56.14c0-8.85-1-12.62-5.2-19.25v-.26h33.29c20.93 0 29.51 9 29.51 22.5 0 11.57-5.85 21.58-18.46 25.61l15.86 30.17c5.08 9.89 8.2 13.4 14.57 16.39v.52h-17.92l-23.53-45.38h-17.43v25.87c0 9 .91 12.61 5.2 19.25v.26H246V224zm82.09 0c4.29-6.64 5.2-10.4 5.2-19.25v-56.14c0-8.85-.91-12.62-5.2-19.25v-.26h21.07v.26c-4.29 6.63-5.2 10.27-5.2 19.25v56.17c0 9 .91 12.61 5.2 19.25v.26h-21.04l-.03-.29zm98.07.26h-63.82V224c3.38-6.5 5.07-10.8 5.07-17.95V147.3c0-7.27-1.69-11.44-5.07-17.94v-.26h57.35l5.07 20.81-1 .39c-6.5-7.67-13.4-18-18.21-18.21l-27.31-.91v43.95h16.39c4.81 0 9-7.8 12.48-12.35h1v26.53h-1c-3.38-3.9-7.67-11.57-12.48-11.57H378.2v44.47l28.35-.91c9.36-.4 17.17-10.15 24.32-20.68l1 .39-5.71 23.25zm22.67-82.06l.52 60.47c0 9.75 1.68 13.78 9.1 21.33v.26h-19.22V224c5.86-7.55 7.16-11.58 7.16-21.33v-59.14c-1.83-6.5-4.82-10.4-10.28-14.17v-.26h15.74l60.59 78.8-.39-57.21c-.12-9.76-1.55-13.79-7.93-21.33v-.26h18v.26c-5.86 7.54-7.15 11.57-7.15 21.33v73.6l-2.74.39-63.4-82.48zM45.24 168.86c-1.83 1.18-3.74 1.36-5.41-.08-1.67-1.44-2.89-3.38-2.42-5.87a.757.757 0 01.653-.722.772.772 0 01.347.032c1.59-.19 1.19 1.07 1.3 1.88a4.751 4.751 0 001.65 3.51 7.347 7.347 0 002.77.58 1.64 1.64 0 011.11.67zm0 0l-1.24-.11c3-2.61 2.22-5.66 1-8.76.2-.27.41-.29.63 0 3.95 3.11 3.81 6.28-.39 8.87zm-4.24-.62a4.653 4.653 0 01-2-4.24c0-.71.23-1.35-.57-1.73a.738.738 0 01.21-.53 1.491 1.491 0 011.68-.25c.56 2.18 2.01 4.33.68 6.75zm-.63-6.66l-1.7.11c2.82-3.43 3.14-3.51 7-1.74a.993.993 0 01-.43.19 43.556 43.556 0 01-4.89 1.44h.02zm0 0c1.24-1.73 3-1.93 4.86-1.44 2.53 3.86 2.93 6.79-1.23 8.61-1-.05-2.14.46-3-.51.4-2.24-1.57-4.33-.65-6.66h.02z" fill="currentColor"/></svg>