
<svg viewBox="0 0 534 534" fill="none" xmlns="http://www.w3.org/2000/svg"><path d="M183.85 26.95l-2.11 40.33 26.43-8.18-24.32-32.15zm3.65 73.4l-13.1 4.05-.07-.21c3.11-5.9 3.37-9.64 3.83-18l3.93-71.38 2.58-.79 44.22 57.65c5.88 7.6 8 9.64 12.69 11.73l.07.21-17.08 5.29-.07-.21c.85-3-.06-8.22-5-14.59l-9.94-13-28 8.67-.68 13.4c-.62 10.55 3.45 14.95 6.56 17l.06.18zM259.96 13.42l-4.9 52.08c-.85 8.4.25 12 6 19.15v.23L244.5 83.2v-.23c5.7-6 7.17-9.33 8-17.73l5.18-50.92c-1-5.75-3.22-9.37-7.59-13.09V1l13.54 1.38 45.26 73.12 4.67-49.27c.73-8.41-.14-12-5-19V7L324 8.57v.23c-5.69 6-7.17 9.33-8 17.73l-6.44 63.34-2.39.09-47.21-76.54zM364.22 35.1l-25.7 45.57c-4.21 7.32-4.68 11.07-2.38 19.93l-.11.19-14.44-8.3.12-.2c7.64-3.14 10.35-5.6 14.56-12.91l25.54-44.37a20.17 20.17 0 00-1.58-15.07l.1-.2 11.81 6.8 11.43 85.26 24.39-43.12c4.12-7.36 4.78-11 3.26-19.41l.11-.19 13.47 7.74-.12.2c-7.64 3.13-10.36 5.59-14.57 12.9l-31.76 55.18-2.21-.88-11.92-89.12zM422.24 178.39l-33.63-43.81.18-.14c6.24-1.1 10.07-2.2 15-6l40.33-31c5-3.83 7-7.18 9.65-12.93l.17-.13 30.21 39.34-11.61 14.44-.81-.5c1.84-8.51 5.26-18.65 2.9-22.09l-13.76-19.21-30.16 23.14 8.63 11.25c2.53 3.31 10.09 2 15.06 2.06l.54.71-18.2 14-.55-.72c.9-4.38 3.91-11.36 1.37-14.66l-8.6-11.19-30.52 23.42 15.56 19c5.19 6.22 16 6.44 27 5.8l.27.92-19.03 8.3zM439.42 234.26l62.24-36.88c7.65-4.48 10.72-7.09 13.34-11.56h.22l3.5 19.36h-.21c-3-1.5-9.24-1.75-15.43 1.89l-50.65 29.64 52.9 9.27c11.69 2.11 17-1.94 19.69-4.83h.23l2.71 14.69h-.22c-5.57-4.24-9.88-5.29-19.07-6.83l-68.72-12.12-.53-2.63zM512.36 301.88l-35.4-19.43-4.11 27.37 39.51-7.94zm-67.72-28.6l2-13.57h.23c4 5.38 7.22 7.23 14.58 11.29l62.61 34.54-.4 2.67-71.13 14.89c-9.4 2-12.18 3.06-16.08 6.34h-.23l2.66-17.69h.22c2.31 2.06 7.44 3.51 15.31 1.84l16.08-3.27 4.36-29-11.78-6.43c-9.25-5.15-15-3.38-18.21-1.48l-.22-.13zM491.52 376.28l-44.88-26.88c-7.2-4.4-10.94-5-19.84-2.89l-.2-.12 8.68-14.21.2.11c2.93 7.73 5.31 10.5 12.52 14.9l43.68 26.68c5.62 1.59 9.84 1.14 15.09-1.19l.19.12-7.08 11.61-85.51 9.21 42.42 25.48c7.25 4.3 10.88 5.07 19.32 3.76l.19.11-8.1 13.26-.18-.12c-2.94-7.72-5.33-10.5-12.52-14.9l-54.35-33.11.95-2.19 89.42-9.63zM369.15 488.52l.6-.76c12.83 9.63 21.76 9.41 29 5.07 8.88-5.32 9.8-13.21 5.86-19.77-5.84-9.76-16.7-8-28.42-6.73-12.4 1.4-25.33 2.58-33.19-10.55-8.5-14.19-.27-26.73 13-34.64a63.724 63.724 0 0121.31-7.78l11.29 14.48-.59.76c-13.14-8.8-23.14-10.16-33.17-4.15-10.24 6.13-11.62 15.22-6.7 23.43 6.3 10.52 16.79 9.87 27.95 8.57 12.56-1.35 25.21-3 32.61 9.33 7.22 12.08 1 23.14-11.07 30.37a52.111 52.111 0 01-17.37 6.46l-11.11-14.09zM286.04 448.1l17.92-3.38v.23c-2.58 6.32-2.76 9.67-1.34 17.19l11.7 62.36 14.64-3.2c4.07-.88 8.5-13.27 11.87-21.46l.95.16-.31 21.46-62.51 11.74-8.19-19.87.83-.5c6.23 6.38 14.85 16.32 19 15.67l14.67-2.3-11.71-62.36c-1.42-7.63-2.78-10.58-7.49-15.53l-.03-.21zM223.67 527.25l7.92-37.66-13.11-2.76c-13.21-2.73-19.35 6.17-21.68 17.27-2.11 10 .42 17.68 13.85 20.51 2.1.44 6.72 1.41 13 2.62l.02.02zm29.83-75.27c-4.7 4.88-6.26 7.88-7.83 15.37l-10 47.57c-1.58 7.49-1.37 10.87 1 17.22v.23l-28.19-5.94c-17.73-3.72-23.4-12.85-21-24.3 2.06-9.79 8.8-17.24 20.2-18.4l-8.07-28.37c-2.53-9.28-4.55-12.8-9.41-16.47l.09-.44 15.2 3.2 11.85 42.61 14.75 3.11 4.61-21.92c1.6-7.59 1.48-10.84-1-17.22v-.21l17.85 3.74-.05.22zM185.06 433.1c-6 3.37-8.16 5.89-11.71 12.67l-22.53 43.05c-3.55 6.77-4.36 10-3.73 16.83l-.11.2-16.14-8.45.09-.2c6-3.36 8.12-5.78 11.72-12.66l22.53-43c3.6-6.88 4.36-10 3.73-16.84l.1-.19 16.15 8.44-.1.15zM117.57 381.89l40.3 37.76-.15.16c-6 2.1-9.6 3.81-13.82 8.32l-34.76 37.1c-4.31 4.59-5.7 8.22-7.41 14.32l-.16.16-36.19-33.91 9.11-16.13.88.37c-.44 8.69-2.16 19.25.73 22.26l16.69 16.72 26-27.73-10.33-9.7c-3-2.84-10.28-.37-15.19.42l-.66-.61 15.69-16.75.66.61c-.17 4.47-2 11.85 1 14.69l10.34 9.69 26.31-28.06-18.44-16.2c-6.13-5.29-16.83-3.75-27.56-1.33l-.44-.86 17.4-11.3zM42.38 396.4l47.5-21.89c7.69-3.46 10.28-6.23 13.59-14.76l.2-.09 6.85 15.18-.21.09c-8-1.93-11.67-1.52-19.36 1.94l-46.67 21a20.15 20.15 0 00-7.53 13.14l-.21.09-5.58-12.39 40.62-75.79-45 20.63c-7.65 3.57-10.31 6.13-14 13.84l-.21.08L6 343.32l.2-.09c8 1.94 11.67 1.53 19.36-1.93l58.05-26.15 1.28 2-42.51 79.25zM44.8 204.2l1.69-6.24c1.05-3.85-1.15-6.87-4.71-7.84-3.56-.97-7 .52-8 4.37l-1.7 6.23 12.72 3.48zm2.92-5.9l-2 7.57-15.22-4.15 2.07-7.57a7.88 7.88 0 0115.2 4.15M49.49 167.9l1.18.49-4.41 10.49 5.66 2.38 4.7-11.18 1.16.49-5.23 12.46-14.5-6.1 5.18-12.35 1.17.5-4.65 11.07 5.34 2.24 4.4-10.49zM60.46 147.54l1.11.63-5.7 9.88 5.32 3.08 6.09-10.53 1.1.64-6.77 11.73-13.67-7.9 6.72-11.63 1.1.64-6.03 10.43 5.03 2.9 5.7-9.87zM62.6 134.24l5.77 4.45 4.88-6.34c1.48-1.92 1-3.73-.72-5s-3.58-1.34-5 .58l-4.93 6.31zm10.59 9.9l-12.44-9.59 5.72-7.42a4.907 4.907 0 013.26-1.872 4.915 4.915 0 015.502 4.243 4.913 4.913 0 01-.982 3.629l-4.87 6.34 4.65 3.59-.84 1.08zM75.85 238.8l1.07-6.38c.65-3.94-1.84-6.73-5.47-7.34-3.63-.61-6.91 1.22-7.57 5.16l-1.07 6.38 13.04 2.18zm2.33-6.17l-1.3 7.75-15.56-2.6 1.29-7.75a7.891 7.891 0 019.085-6.485 7.896 7.896 0 016.485 9.085M77.08 202.22l1.2.38-3.46 10.85 5.85 1.87 3.7-11.55 1.21.39-4.12 12.86-15-4.8 4.08-12.77 1.21.39-3.66 11.45 5.52 1.76 3.47-10.83zM81.15 179.61a11.308 11.308 0 00-3.47 4.72c-1.32 3-1.31 5 .51 5.86 1.42.64 2.71-.28 5-3.76 2.71-4.14 4.58-5.48 7.1-4.35 2.7 1.22 2.91 4.24 1.23 8-2.06 4.58-4.64 6-4.64 6l-.64-1.18a12.633 12.633 0 004.11-5.31c1.44-3.2 1.19-5.32-.64-6.15-1.83-.83-2.87-.09-5.38 3.8-2.91 4.38-4.73 5.19-6.71 4.31-2.27-1-2.95-3.53-1.08-7.69 1.94-4.33 4-5.37 4-5.37l.61 1.12zM84.39 168.89l.68-1.2 13.7 7.81-.69 1.19-13.69-7.8zM107.52 159.95a9.881 9.881 0 002.07-4.86l-4.21-3-2.8 4-1.05-.73 3.61-5.11 5.78 4.08a10.572 10.572 0 01-2.36 6.35c-3.55 5-8.33 5.58-12 3s-4.79-7.29-1.23-12.32a10.536 10.536 0 014.9-4l.41 1.22a10.001 10.001 0 00-4.27 3.56c-3.2 4.54-2 8.29 1 10.42 3 2.13 7 2 10.15-2.53M106.21 137.82l1.13-1.19 18.25 1.11-10.19-9.64.95-1.01 11.46 10.83-1.14 1.2-18.24-1.12 10.18 9.64-.95 1.01-11.45-10.83zM269.29 271.65c-1.82 1.18-3.73 1.36-5.4-.08-1.67-1.44-2.9-3.38-2.42-5.86a.773.773 0 01.328-.596.774.774 0 01.672-.104c1.59-.18 1.19 1.08 1.3 1.88a4.747 4.747 0 001.65 3.51c.874.38 1.817.577 2.77.58a1.633 1.633 0 011.1.67z" fill="currentColor"/><path d="M269.29 271.65l-1.25-.11c3-2.61 2.22-5.66 1-8.76.19-.27.4-.29.63 0 3.97 3.11 3.83 6.32-.38 8.87zM265.03 271.03a4.663 4.663 0 01-2-4.29c0-.71.23-1.34-.57-1.73a.712.712 0 01.21-.52 1.455 1.455 0 011.67-.26c.62 2.23 2.05 4.38.69 6.8z" fill="currentColor"/><path d="M264.41 264.38l-1.7.11c2.81-3.44 3.13-3.52 7-1.74-.13.094-.281.156-.44.18a42.847 42.847 0 01-4.86 1.45z" fill="currentColor"/><path d="M264.41 264.38c1.24-1.74 2.94-1.94 4.85-1.45 2.53 3.86 2.94 6.79-1.22 8.61-1-.05-2.14.46-3-.51.42-2.28-1.56-4.33-.63-6.65z" fill="currentColor"/></svg>