
<svg viewBox="0 0 600 600" fill="none" xmlns="http://www.w3.org/2000/svg"><path d="M145.78 168.76l-.16-.22c.64-9.83-.5-14-6.12-22L106 98.44c-4.46-5.49-8-6.87-15.68-7.4l-.15-.21 15.33-10.71 74.5 44.5-16.6-84.9L178 29.55l.16.22c-2.63 8.36-2 12.23 3.61 20.27l32.54 46.68c5.24 7.52 8.2 9.91 15.51 13.1l.15.21-17.27 12.05-.15-.22c-.45-8-1.77-11.67-6.94-19.07L168.16 49l17.17 88.64-1.93 1.36-78.48-46.7L142 144.78c5.61 8.06 9.43 10.33 20.07 12.32l.15.21-16.44 11.45zM234.14 60C232 32.11 252.75 8.49 278.56 6.5c25.81-1.99 50.18 18.18 52.33 46.09 2.15 27.91-18.75 51.28-44.69 53.27-25.94 1.99-49.91-17.93-52.06-45.86zm84.49-6.5c-2.07-26.86-16.4-46.22-39.87-44.42-23.47 1.8-34.43 23.11-32.36 50 2.07 26.89 16.25 46 39.59 44.18 23.34-1.82 34.73-22.73 32.64-49.73v-.03zm42.93 4.74c11.95-25.34 41.69-35.62 65.12-24.57 23.43 11.05 34.65 40.66 22.7 66-11.95 25.34-41.7 35.33-65.25 24.23-23.55-11.1-34.52-40.31-22.57-65.63v-.03zm76.69 36.17c11.51-24.38 8.61-48.32-12.69-58.36-21.3-10.04-41.38 3-52.88 27.43s-8.61 48 12.57 58 41.44-2.54 53-27.04v-.03zm67.3 12.67l-48.45 36.85c-7.86 5.86-10.11 9.66-11.73 20.18l-.21.15-11.58-15.53.21-.15c9.6.18 13.64-1.2 21.51-7.07L503 105.9c4.15-5.38 5.49-10.14 5.25-16.82l.21-.15 9.54 12.69-27.09 96.31 45.92-34.75c7.79-6 10.18-9.55 12.43-19.24l.21-.16 10.79 14.48-.2.16c-9.61-.19-13.65 1.19-21.51 7.06l-59.38 44.31-1.95-2 28.33-100.71zm-7.46 165.75h.27c6.59 4.3 10.37 5.41 19.27 5.57l56.5 1c8.9.16 12.72-.83 19.46-4.89h.26l-.38 21.19h-.27c-6.59-4.44-10.23-5.41-19.26-5.59l-74.17-1.32.49 23.69c.36 9.7 8.72 17.57 20.49 25l-.41 1-23.34-6.24 1.09-59.41zm-6.78 81.72l6.33-14.65.25.09c2.87 7.23 6 10.28 13 17l60.14 57.44-1.25 2.89-84.4-4.5c-11.17-.55-14.62-.17-20 2.35l-.24-.1 8.25-19.1.24.11c2 3 7.32 6.15 16.66 6.61l19 1.1 13.54-31.36-11.33-10.73c-8.86-8.52-15.82-8.24-20-7.06l-.19-.09zM559 406.86l-34.1-32.37L512.15 404l46.85 2.86zM460.43 419l.18.18c1.58 7.73 3.46 11.19 9.61 17.63l39.08 40.85c6.15 6.43 9.54 8.44 17.18 10.37l.17.2c-14.75 14.12-15.9 15.94-22.81 22.54-19.77 19.1-31.85 13.09-38.55 6.09-7.42-7.75-9.67-18.27-3.5-29.06-13.18 9.71-25 6.11-32.74-2-10.58-11.07-10.42-26.8 8-44.44L460.43 419zm-23.33 58.39c9.14 9.54 20.49 11.56 30.8 1.69l14.56-13.93-30.95-32.34a99.075 99.075 0 00-11.86 9.73c-12.87 12.31-12.32 24.64-2.55 34.85zm33.46 2.77c-10.13 9.69-5.56 21.27 1.76 28.92 9.24 9.64 19.89 9.23 30.66-1.08A115.385 115.385 0 00513 497.12l-28.77-30.07-13.67 13.11zm-115.69-58.1L202.48 246.62l-2.42 2.11 152.39 175.43 2.42-2.1z" fill="#342C29"/></svg>